<svg xmlns="http://www.w3.org/2000/svg" width="50" height="50" fill="none" viewBox="0 0 50 50">
    <path fill="#fff" d="M29.574 24.99c0 1.85-.98 3.45-2.448 4.3v18.197c0 1.375-1.102 2.5-2.449 2.5-1.346 0-2.448-1.125-2.448-2.5V29.29c-1.47-.874-2.449-2.45-2.449-4.299 0-2.75 2.204-5 4.897-5 2.694 0 4.897 2.25 4.897 5zm-7.957-14.673c-5.559 1.15-10.089 5.7-11.288 11.373-.98 4.65.171 9.05 2.644 12.349.857 1.125 2.522 1.175 3.502.175l.171-.175c.832-.85.832-2.175.147-3.125-1.665-2.25-2.4-5.25-1.616-8.424.857-3.55 3.722-6.424 7.223-7.199 6.415-1.5 12.072 3.425 12.072 9.699 0 2.175-.686 4.175-1.861 5.8-.735 1.024-.71 2.424.171 3.324 1.077 1.1 2.865.925 3.77-.35 1.764-2.45 2.817-5.5 2.817-8.774 0-9.299-8.301-16.623-17.752-14.673zM21.812.168C10.72 1.443 1.685 10.617.363 21.94c-.857 7.374 1.445 14.174 5.68 19.248.907 1.075 2.523 1.15 3.502.15l.123-.125c.857-.875.93-2.3.122-3.25C5.97 33.39 4.085 27.04 5.628 20.316c1.713-7.524 7.786-13.474 15.23-14.924 12.463-2.45 23.408 7.3 23.408 19.598 0 4.9-1.763 9.399-4.653 12.898-.832 1-.759 2.45.123 3.375 1.028 1.05 2.718.975 3.648-.175 3.6-4.35 5.779-9.949 5.779-16.098 0-14.773-12.561-26.547-27.35-24.822z"/>
</svg>
