<svg xmlns="http://www.w3.org/2000/svg" width="16" height="16" fill="none" viewBox="0 0 16 16">
    <path fill="#fff" d="M15.117 0H.883C.65 0 .424.093.26.259.093.424 0 .649 0 .883v14.234c0 .234.093.459.259.624.165.166.39.259.624.259h7.663V9.804H6.461V7.389h2.085V5.61c0-2.067 1.262-3.192 3.106-3.192.883 0 1.642.065 1.863.095v2.16h-1.279c-1.002 0-1.196.477-1.196 1.176V7.39h2.39l-.31 2.414h-2.08V16h4.077c.234 0 .459-.093.624-.259.166-.165.259-.39.259-.624V.883c0-.234-.093-.459-.259-.624-.165-.166-.39-.259-.624-.259z"/>
</svg>
