<svg xmlns="http://www.w3.org/2000/svg" width="16" height="16" fill="none" viewBox="0 0 16 16">
    <path fill="#fff" d="M7.998 5.332C6.528 5.332 5.33 6.531 5.33 8s1.199 2.668 2.668 2.668S10.666 9.469 10.666 8s-1.2-2.668-2.668-2.668zM15.999 8c0-1.105.01-2.2-.052-3.302-.062-1.281-.354-2.418-1.29-3.355-.94-.938-2.074-1.228-3.355-1.29C10.197-.01 9.102 0 8 0 6.895 0 5.8-.01 4.698.053 3.417.115 2.28.407 1.343 1.343.405 2.284.115 3.417.053 4.699-.01 5.803 0 6.898 0 8c0 1.103-.01 2.2.052 3.302.062 1.281.354 2.418 1.29 3.354.94.94 2.074 1.23 3.355 1.291C5.802 16.01 6.898 16 8 16c1.105 0 2.2.01 3.302-.052 1.28-.062 2.418-.354 3.354-1.29.939-.94 1.229-2.074 1.291-3.355C16.011 10.2 16 9.105 16 8zm-8.001 4.105c-2.272 0-4.105-1.834-4.105-4.105 0-2.272 1.833-4.105 4.105-4.105 2.271 0 4.104 1.833 4.104 4.105 0 2.271-1.833 4.105-4.104 4.105zm4.273-7.42c-.53 0-.959-.428-.959-.958s.428-.959.959-.959c.53 0 .958.429.958.96 0 .125-.024.25-.072.366-.049.117-.12.222-.208.311-.09.09-.195.16-.311.208-.117.048-.241.073-.367.073z"/>
</svg>
