<svg xmlns="http://www.w3.org/2000/svg" width="16" height="16" fill="none" viewBox="0 0 16 16">
    <path fill="#fff" fill-rule="evenodd" d="M0 1.337C0 .982.14.642.392.392.642.14.982 0 1.337 0h13.325c.175 0 .35.034.512.101.162.067.31.166.434.29.124.124.223.271.29.434.068.162.102.336.102.512v13.325c0 .175-.034.35-.101.512-.067.162-.166.31-.29.434-.124.124-.272.223-.434.29-.163.068-.337.102-.513.102H1.338c-.176 0-.35-.035-.512-.102-.162-.067-.31-.166-.434-.29-.124-.124-.222-.271-.29-.434-.067-.162-.101-.336-.101-.511V1.336zM6.333 6.1H8.5v1.088C8.812 6.563 9.612 6 10.815 6c2.304 0 2.85 1.246 2.85 3.532v4.234h-2.332v-3.714c0-1.301-.313-2.036-1.107-2.036-1.102 0-1.56.792-1.56 2.036v3.714H6.333V6.1zm-4 7.566h2.333V6H2.333v7.666zM5 3.5c.004.2-.031.398-.105.584-.073.186-.183.355-.322.498-.14.143-.307.256-.491.334-.184.077-.382.117-.582.117-.2 0-.398-.04-.582-.117-.184-.078-.35-.191-.49-.334-.14-.143-.25-.312-.323-.498-.074-.186-.11-.385-.105-.584.009-.392.17-.766.45-1.04.281-.274.658-.428 1.05-.428s.769.154 1.05.428c.28.274.441.648.45 1.04z" clip-rule="evenodd"/>
</svg>
