<svg xmlns="http://www.w3.org/2000/svg" width="130" height="33" fill="none" viewBox="0 0 130 33">
    <g clip-path="url(#clip0)">
        <path fill="#fff" d="M40.709 10.297c.562-.649 1.205-1.135 2.008-1.486.777-.352 1.688-.54 2.679-.54.91 0 1.767.161 2.517.486.75.324 1.393.756 1.902 1.324.509.567.91 1.243 1.178 2.054.268.81.402 1.675.402 2.621v10.216h-3.509v-9.73c0-1.134-.321-2.053-.937-2.756-.616-.703-1.473-1.054-2.544-1.054-1.072 0-1.955.351-2.652 1.054-.696.703-1.044 1.622-1.044 2.757v9.73h-3.455V0h3.455v10.297zM63.474 11.216c-1.179 0-2.197.351-3.027 1.081-.83.73-1.393 1.703-1.66 2.919h8.81c-.053-1.297-.454-2.27-1.258-2.973-.803-.676-1.767-1.027-2.865-1.027zm.107-2.946c1.07 0 2.089.19 3 .568.91.378 1.713.891 2.383 1.567.67.676 1.178 1.46 1.553 2.378.375.92.563 1.92.563 2.973 0 .433-.027.865-.08 1.27-.054.406-.108.703-.188.92H58.733c.241 1.35.83 2.405 1.795 3.162.937.756 2.115 1.135 3.508 1.135.937 0 1.794-.162 2.571-.514.777-.351 1.473-.81 2.142-1.405l1.688 2.405c-.857.81-1.821 1.46-2.893 1.919-1.07.46-2.276.703-3.562.703-1.258 0-2.41-.216-3.508-.649-1.071-.432-2.009-1.027-2.759-1.81-.776-.757-1.366-1.676-1.82-2.703-.43-1.054-.67-2.163-.67-3.352s.214-2.324.642-3.35c.429-1.055 1.018-1.947 1.795-2.704.75-.756 1.633-1.378 2.651-1.81.964-.487 2.062-.703 3.268-.703zM82.49 11.46c-.697 0-1.366.134-1.956.404-.616.27-1.125.65-1.58 1.109-.428.486-.777 1.054-1.044 1.702-.241.649-.375 1.379-.375 2.135 0 .811.134 1.514.375 2.19.24.648.616 1.216 1.044 1.675.455.46.964.838 1.58 1.081.59.243 1.232.379 1.955.379.59 0 1.179-.109 1.768-.325.59-.216 1.098-.54 1.58-.973.455-.432.83-.973 1.125-1.648.294-.676.428-1.46.428-2.406 0-.919-.133-1.73-.401-2.405-.268-.676-.643-1.243-1.098-1.676-.456-.432-.991-.756-1.58-.973-.617-.162-1.206-.27-1.822-.27zm-.536-3.19c1.178 0 2.276.243 3.24.703.991.46 1.768 1.108 2.384 1.973V8.648h3.24V25h-3.32v-2.135c-.616.811-1.42 1.406-2.384 1.838-.964.432-2.035.649-3.16.649-1.179 0-2.223-.216-3.214-.649-.964-.432-1.794-1.027-2.518-1.81-.696-.757-1.258-1.676-1.66-2.703-.402-1.027-.59-2.163-.59-3.379 0-1.216.188-2.35.59-3.405.402-1.054.937-1.946 1.66-2.703.697-.756 1.527-1.378 2.518-1.81.964-.406 2.035-.622 3.214-.622zM99.281 0h-3.455v24.972h3.455V0zM103.513 8.621v-6h3.455v6h4.848v3.027h-4.848v7.703c0 1.081.268 1.838.83 2.243.563.405 1.366.595 2.384.595.294 0 .616-.027.964-.054s.75-.081 1.152-.109V25c-.429.109-.884.19-1.339.27-.456.055-.965.109-1.5.109-1.795 0-3.241-.46-4.339-1.378-1.098-.92-1.634-2.352-1.634-4.325V8.621h.027zM119.314 10.297c.563-.649 1.205-1.135 2.009-1.486.777-.352 1.687-.54 2.678-.54.911 0 1.768.161 2.518.486.75.324 1.392.756 1.901 1.324.509.567.911 1.243 1.179 2.054.267.81.401 1.675.401 2.621v10.216h-3.508v-9.73c0-1.134-.322-2.053-.938-2.756-.616-.703-1.473-1.054-2.544-1.054s-1.955.351-2.651 1.054c-.697.703-1.045 1.622-1.045 2.757v9.73h-3.455V0h3.455v10.297z"/>
        <path fill="#3BEB73" d="M29.113 12.513c-.482-1.08-1.125-2.027-1.928-2.81-.83-.811-1.768-1.433-2.84-1.892-1.07-.46-2.249-.703-3.481-.703-1.232 0-2.41.243-3.508.703-1.099.459-2.063 1.108-2.866 1.891-.83.811-1.446 1.73-1.928 2.811-.456 1.081-.697 2.243-.697 3.514v16.27h3.723V16.08c0-.784.134-1.54.375-2.216.24-.676.616-1.27 1.071-1.784.456-.487 1.018-.892 1.687-1.19.67-.297 1.366-.432 2.116-.432s1.42.135 2.062.433c.643.297 1.206.675 1.688 1.189.482.486.83 1.08 1.098 1.784.268.675.402 1.432.402 2.216 0 .783-.134 1.513-.402 2.189-.268.675-.643 1.27-1.098 1.756-.482.514-1.045.892-1.688 1.163-.642.27-1.339.405-2.115.405h-3.482v3.378h3.508c1.232 0 2.41-.243 3.509-.702 1.098-.46 2.062-1.108 2.866-1.892.83-.811 1.473-1.757 1.928-2.838.482-1.081.696-2.27.696-3.513 0-1.244-.214-2.433-.696-3.514zM6.883 21.162c-.643-.27-1.178-.676-1.66-1.162-.483-.487-.83-1.081-1.099-1.757-.267-.676-.375-1.405-.375-2.19v-5.756h4.473l2.062-3.162H3.75V2.622H0v13.405c0 1.243.241 2.405.696 3.486.456 1.081 1.098 2.027 1.929 2.838.83.81 1.767 1.432 2.839 1.892 1.07.46 2.25.702 3.481.702h1.179v-3.35H8.945c-.75 0-1.446-.136-2.062-.433z"/>
    </g>
    <defs>
        <clipPath id="clip0">
            <path fill="#fff" d="M0 0H130V32.27H0z"/>
        </clipPath>
    </defs>
</svg>
