<svg xmlns="http://www.w3.org/2000/svg" width="16" height="14" fill="none" viewBox="0 0 16 14">
    <path fill="#fff" d="M16 1.565c-.6.27-1.235.447-1.885.525.685-.417 1.198-1.073 1.443-1.846-.644.389-1.35.663-2.084.81-.308-.333-.679-.599-1.09-.78C11.97.093 11.526 0 11.077 0 9.265 0 7.795 1.494 7.795 3.337c0 .261.03.516.085.76C5.152 3.958 2.733 2.63 1.114.611.822 1.12.67 1.699.67 2.288c0 .55.133 1.09.387 1.575.255.485.624.898 1.073 1.203-.521-.017-1.03-.16-1.486-.418v.042c0 1.617 1.13 2.965 2.632 3.272-.484.133-.99.153-1.482.057.417 1.326 1.63 2.29 3.066 2.318-1.163.927-2.599 1.43-4.077 1.428-.265 0-.526-.015-.783-.046 1.5.98 3.248 1.5 5.032 1.498 6.037 0 9.34-5.084 9.34-9.493 0-.144-.004-.289-.01-.432.643-.472 1.197-1.057 1.638-1.727z"/>
</svg>
