<svg xmlns="http://www.w3.org/2000/svg" width="21" height="20" fill="none" viewBox="0 0 21 20">
    <path fill="#3BEB73" d="M12.5 10c0 .74-.4 1.38-1 1.72V19c0 .55-.45 1-1 1s-1-.45-1-1v-7.28c-.6-.35-1-.98-1-1.72 0-1.1.9-2 2-2s2 .9 2 2zM9.25 4.13c-2.27.46-4.12 2.28-4.61 4.55-.4 1.86.07 3.62 1.08 4.94.35.45 1.03.47 1.43.07l.07-.07c.34-.34.34-.87.06-1.25-.68-.9-.98-2.1-.66-3.37.35-1.42 1.52-2.57 2.95-2.88 2.62-.6 4.93 1.37 4.93 3.88 0 .87-.28 1.67-.76 2.32-.3.41-.29.97.07 1.33.44.44 1.17.37 1.54-.14.72-.98 1.15-2.2 1.15-3.51 0-3.72-3.39-6.65-7.25-5.87zM9.33.07C4.8.58 1.11 4.25.57 8.78c-.35 2.95.59 5.67 2.32 7.7.37.43 1.03.46 1.43.06l.05-.05c.35-.35.38-.92.05-1.3-1.56-1.83-2.33-4.37-1.7-7.06.7-3.01 3.18-5.39 6.22-5.97 5.09-.98 9.56 2.92 9.56 7.84 0 1.96-.72 3.76-1.9 5.16-.34.4-.31.98.05 1.35.42.42 1.11.39 1.49-.07 1.47-1.74 2.36-3.98 2.36-6.44C20.5 4.09 15.37-.62 9.33.07z"/>
</svg>
