<svg xmlns="http://www.w3.org/2000/svg" width="16" height="16" fill="none" viewBox="0 0 16 16">
    <path fill="#3BEB73" d="M15.429 4H12.57V.571C12.571.256 12.316 0 12 0H.571C.256 0 0 .256 0 .571v13.143C0 14.977 1.023 16 2.286 16h11.428C14.977 16 16 14.977 16 13.714V4.571c0-.315-.256-.571-.571-.571zM4.57 2.857H8c.316 0 .571.256.571.572C8.571 3.744 8.316 4 8 4H4.571C4.256 4 4 3.744 4 3.429c0-.316.256-.572.571-.572zm5.143 10.857H2.857c-.315 0-.571-.256-.571-.571 0-.316.256-.572.571-.572h6.857c.316 0 .572.256.572.572 0 .315-.256.571-.572.571zm0-2.285H2.857c-.315 0-.571-.256-.571-.572 0-.316.256-.571.571-.571h6.857c.316 0 .572.255.572.571 0 .316-.256.572-.572.572zm0-2.286H2.857c-.315 0-.571-.256-.571-.572 0-.315.256-.571.571-.571h6.857c.316 0 .572.256.572.571 0 .316-.256.572-.572.572zm0-2.286H2.857c-.315 0-.571-.256-.571-.571 0-.316.256-.572.571-.572h6.857c.316 0 .572.256.572.572 0 .315-.256.571-.572.571zm5.143 6.857c0 .631-.512 1.143-1.143 1.143-.63 0-1.143-.512-1.143-1.143V5.143h2.286v8.571z"/>
</svg>
