<svg xmlns="http://www.w3.org/2000/svg" width="141" height="35" fill="none" viewBox="0 0 141 35">
    <g clip-path="url(#clip0)">
        <path fill="#074159" d="M44.154 11.168c.61-.703 1.307-1.23 2.178-1.612.843-.381 1.83-.586 2.905-.586.987 0 1.917.176 2.73.527.814.352 1.51.821 2.063 1.437.552.615.987 1.348 1.278 2.228.29.879.436 1.817.436 2.843v11.08h-3.806V16.533c0-1.232-.348-2.228-1.016-2.99s-1.598-1.143-2.76-1.143c-1.162 0-2.12.38-2.876 1.143-.755.762-1.133 1.759-1.133 2.99v10.552h-3.747V0h3.748v11.168zM68.843 12.165c-1.278 0-2.382.38-3.282 1.172-.9.792-1.51 1.847-1.801 3.166h9.557c-.058-1.407-.494-2.462-1.365-3.224-.872-.733-1.918-1.114-3.109-1.114zm.117-3.195c1.162 0 2.265.205 3.253.615.988.41 1.859.968 2.585 1.7.726.733 1.278 1.583 1.685 2.58.407.997.61 2.081.61 3.225 0 .468-.029.938-.087 1.377-.058.44-.116.762-.204.997h-13.1c.261 1.466.9 2.609 1.946 3.43 1.017.82 2.295 1.23 3.805 1.23 1.017 0 1.947-.175 2.789-.556.842-.381 1.598-.88 2.324-1.525l1.83 2.61c-.93.879-1.975 1.582-3.137 2.08-1.162.499-2.47.763-3.864.763-1.365 0-2.614-.235-3.805-.704-1.162-.469-2.179-1.114-2.992-1.964-.842-.82-1.481-1.817-1.975-2.931-.465-1.143-.726-2.345-.726-3.635 0-1.29.232-2.52.697-3.635.464-1.143 1.103-2.11 1.946-2.931.813-.82 1.772-1.495 2.876-1.964 1.045-.528 2.236-.762 3.544-.762zM89.468 12.429c-.755 0-1.482.146-2.12.44-.669.293-1.22.703-1.715 1.201-.464.528-.842 1.143-1.132 1.847-.262.704-.407 1.495-.407 2.316 0 .88.145 1.641.407 2.374.261.704.668 1.32 1.132 1.817.494.499 1.046.91 1.714 1.173.64.264 1.337.41 2.12.41.64 0 1.279-.117 1.918-.351.639-.235 1.191-.587 1.714-1.056.494-.469.9-1.055 1.22-1.788.32-.733.465-1.583.465-2.609 0-.996-.146-1.876-.436-2.608-.29-.733-.697-1.349-1.191-1.818-.494-.469-1.075-.82-1.714-1.055-.668-.176-1.307-.293-1.975-.293zm-.581-3.46c1.278 0 2.469.265 3.515.763 1.075.498 1.917 1.202 2.585 2.14V9.38h3.515v17.735H94.9v-2.316c-.668.88-1.54 1.524-2.586 1.993-1.045.47-2.207.704-3.427.704-1.278 0-2.411-.235-3.486-.704-1.046-.469-1.946-1.114-2.73-1.964-.756-.82-1.366-1.817-1.802-2.931-.435-1.114-.638-2.345-.638-3.664 0-1.32.203-2.55.639-3.694.435-1.143 1.016-2.11 1.8-2.931.756-.82 1.656-1.495 2.731-1.964 1.046-.44 2.208-.674 3.486-.674zM107.681 0h-3.747v27.085h3.747V0zM112.271 9.35V2.844h3.747v6.508h5.258v3.283h-5.258v8.354c0 1.173.291 1.994.901 2.433.61.44 1.481.645 2.585.645.32 0 .668-.03 1.046-.059.378-.029.813-.088 1.249-.117v3.225c-.465.117-.959.205-1.452.293-.494.058-1.046.117-1.627.117-1.946 0-3.515-.498-4.706-1.495-1.191-.997-1.772-2.55-1.772-4.69V9.35h.029zM129.409 11.168c.61-.703 1.307-1.23 2.179-1.612.842-.381 1.83-.586 2.905-.586.987 0 1.917.176 2.73.527.814.352 1.511.821 2.063 1.437.552.615.987 1.348 1.278 2.228.29.879.436 1.817.436 2.843v11.08h-3.806V16.533c0-1.232-.348-2.228-1.016-2.99-.669-.762-1.598-1.143-2.76-1.143-1.162 0-2.121.38-2.876 1.143-.755.762-1.133 1.759-1.133 2.99v10.552h-3.747V0h3.747v11.168z"/>
        <path fill="#3BEB73" d="M31.576 13.572c-.523-1.172-1.22-2.198-2.091-3.048-.9-.88-1.918-1.554-3.08-2.052-1.161-.499-2.44-.763-3.776-.763-1.336 0-2.614.264-3.805.763-1.191.498-2.237 1.201-3.108 2.052-.9.879-1.569 1.876-2.092 3.048-.493 1.173-.755 2.433-.755 3.81V35.03h4.038V17.441c0-.85.145-1.67.407-2.403.261-.733.668-1.378 1.161-1.935.494-.527 1.104-.967 1.83-1.29.727-.322 1.482-.469 2.295-.469.814 0 1.54.147 2.237.47.697.322 1.307.732 1.83 1.29.523.527.9 1.172 1.191 1.934.29.733.436 1.553.436 2.404 0 .85-.146 1.641-.436 2.374-.29.733-.697 1.378-1.191 1.905-.523.557-1.133.968-1.83 1.26-.697.294-1.452.44-2.295.44h-3.776v3.665h3.805c1.336 0 2.615-.264 3.806-.763 1.19-.498 2.236-1.201 3.108-2.052.9-.879 1.597-1.905 2.091-3.077.523-1.173.755-2.463.755-3.811 0-1.349-.232-2.638-.755-3.81zM7.465 22.952c-.697-.293-1.278-.733-1.8-1.26-.523-.528-.901-1.173-1.192-1.906-.29-.733-.406-1.524-.406-2.374v-6.244h4.85l2.238-3.43H4.067V2.844H0v14.54c0 1.348.261 2.608.755 3.781s1.191 2.198 2.092 3.078c.9.88 1.917 1.553 3.079 2.052 1.162.498 2.44.762 3.776.762h1.278v-3.635H9.702c-.813 0-1.569-.146-2.237-.469z"/>
    </g>
    <defs>
        <clipPath id="clip0">
            <path fill="#fff" d="M0 0H141V35H0z"/>
        </clipPath>
    </defs>
</svg>
