<svg xmlns="http://www.w3.org/2000/svg" width="16" height="17" fill="none" viewBox="0 0 16 17">
    <path fill="#074159" d="M11.435 10.507h-.723l-.256-.247c.897-1.043 1.437-2.397 1.437-3.87 0-3.284-2.663-5.946-5.947-5.946C2.662.444 0 3.106 0 6.391c0 3.284 2.662 5.946 5.946 5.946 1.473 0 2.827-.54 3.87-1.436l.247.256v.722l4.574 4.565L16 15.081l-4.565-4.574zm-5.489 0c-2.278 0-4.116-1.839-4.116-4.116 0-2.278 1.838-4.117 4.116-4.117 2.278 0 4.117 1.839 4.117 4.117 0 2.277-1.839 4.116-4.117 4.116z"/>
</svg>
